<mxfile host="app.diagrams.net" modified="2023-12-17T00:05:03.811Z" agent="Mozilla/5.0 (Windows NT 10.0; Win64; x64) AppleWebKit/537.36 (KHTML, like Gecko) Chrome/120.0.0.0 Safari/537.36" etag="5orC3EJQZDVHwCknQlB8" version="22.1.11" type="github">
  <diagram name="Página-1" id="YSbjXvozlH7xKWjAQ2Yx">
    <mxGraphModel dx="1050" dy="522" grid="1" gridSize="10" guides="1" tooltips="1" connect="1" arrows="1" fold="1" page="1" pageScale="1" pageWidth="1169" pageHeight="827" math="0" shadow="0">
      <root>
        <mxCell id="0" />
        <mxCell id="1" parent="0" />
        <mxCell id="dtmtrESHxhqWpzfDaQ-3-1" value="Administrador" style="shape=umlActor;verticalLabelPosition=bottom;verticalAlign=top;html=1;outlineConnect=0;fillColor=none;" vertex="1" parent="1">
          <mxGeometry x="50" y="215" width="30" height="60" as="geometry" />
        </mxCell>
        <mxCell id="dtmtrESHxhqWpzfDaQ-3-2" value="Interfaz de edición de empleados" style="rounded=0;whiteSpace=wrap;html=1;fillColor=none;verticalAlign=top;" vertex="1" parent="1">
          <mxGeometry x="140" y="120" width="240" height="230" as="geometry" />
        </mxCell>
        <mxCell id="dtmtrESHxhqWpzfDaQ-3-3" value="Editar nombre" style="ellipse;whiteSpace=wrap;html=1;fillColor=none;" vertex="1" parent="1">
          <mxGeometry x="200" y="157.5" width="120" height="50" as="geometry" />
        </mxCell>
        <mxCell id="dtmtrESHxhqWpzfDaQ-3-4" value="Editar ID" style="ellipse;whiteSpace=wrap;html=1;fillColor=none;" vertex="1" parent="1">
          <mxGeometry x="200" y="217.5" width="120" height="50" as="geometry" />
        </mxCell>
        <mxCell id="dtmtrESHxhqWpzfDaQ-3-5" value="" style="endArrow=none;html=1;rounded=0;entryX=0;entryY=0.5;entryDx=0;entryDy=0;exitX=0.5;exitY=0.5;exitDx=0;exitDy=0;exitPerimeter=0;" edge="1" parent="1" source="dtmtrESHxhqWpzfDaQ-3-1" target="dtmtrESHxhqWpzfDaQ-3-3">
          <mxGeometry width="50" height="50" relative="1" as="geometry">
            <mxPoint x="55" y="235" as="sourcePoint" />
            <mxPoint x="210" y="250" as="targetPoint" />
          </mxGeometry>
        </mxCell>
        <mxCell id="dtmtrESHxhqWpzfDaQ-3-6" value="" style="endArrow=none;html=1;rounded=0;exitX=0.5;exitY=0.5;exitDx=0;exitDy=0;exitPerimeter=0;entryX=0;entryY=0.5;entryDx=0;entryDy=0;" edge="1" parent="1" source="dtmtrESHxhqWpzfDaQ-3-1" target="dtmtrESHxhqWpzfDaQ-3-4">
          <mxGeometry width="50" height="50" relative="1" as="geometry">
            <mxPoint x="55" y="235" as="sourcePoint" />
            <mxPoint x="210" y="310" as="targetPoint" />
          </mxGeometry>
        </mxCell>
        <mxCell id="dtmtrESHxhqWpzfDaQ-3-7" value="Regresar" style="ellipse;whiteSpace=wrap;html=1;fillColor=none;" vertex="1" parent="1">
          <mxGeometry x="200" y="282.5" width="120" height="50" as="geometry" />
        </mxCell>
        <mxCell id="dtmtrESHxhqWpzfDaQ-3-8" value="" style="endArrow=none;html=1;rounded=0;exitX=0.5;exitY=0.5;exitDx=0;exitDy=0;exitPerimeter=0;entryX=0;entryY=0.5;entryDx=0;entryDy=0;" edge="1" parent="1" source="dtmtrESHxhqWpzfDaQ-3-1" target="dtmtrESHxhqWpzfDaQ-3-7">
          <mxGeometry width="50" height="50" relative="1" as="geometry">
            <mxPoint x="70" y="335" as="sourcePoint" />
            <mxPoint x="205" y="450" as="targetPoint" />
          </mxGeometry>
        </mxCell>
      </root>
    </mxGraphModel>
  </diagram>
</mxfile>
